PathFileType	4	(X/Y/Z)	path1_04_0-548.trc
DataRate	CameraRate	NumFrames	NumMarkers	Units	OrigDataRate	OrigDataStartFrame	OrigNumFrames
30	30	6	22	m	30	479	548
Frame#	Time	Hip			RHip			RKnee			RAnkle			RBigToe			RSmallToe			RHeel			LHip			LKnee			LAnkle			LBigToe			LSmallToe			LHeel			Neck			Head			Nose			RShoulder			RElbow			RWrist			LShoulder			LElbow			LWrist		
		X1	Y1	Z1	X2	Y2	Z2	X3	Y3	Z3	X4	Y4	Z4	X5	Y5	Z5	X6	Y6	Z6	X7	Y7	Z7	X8	Y8	Z8	X9	Y9	Z9	X10	Y10	Z10	X11	Y11	Z11	X12	Y12	Z12	X13	Y13	Z13	X14	Y14	Z14	X15	Y15	Z15	X16	Y16	Z16	X17	Y17	Z17	X18	Y18	Z18	X19	Y19	Z19	X20	Y20	Z20	X21	Y21	Z21	X22	Y22	Z22
480	16.0	-1.6588155934154003	0.8232692563201415	0.5970946004905641	-1.6753668469462322	0.7973793998110099	0.4969707626293271	-1.818952991979534	0.4664021748175266	0.4530736123620342	-1.7295914502667282	0.13044057133386472	0.4561025485294433	-1.8818434455009951	-0.004956103996396788	0.46990676903978473	-1.859603408140706	-0.0013789093636492507	0.43139778746226565	-1.6807730307033355	0.06293168366213807	0.4732246530754069	-1.6377466848513869	0.7918521537334997	0.6857811987406482	-1.6407560392389602	0.43437031781351215	0.6321505906227858	-1.5494794343515346	0.07366001398831293	0.6159335752970427	-1.7577220156910867	-0.011931443907872728	0.6482054208584008	-1.7060817300512023	-0.023443181234020734	0.6777888198418349	-1.506447927738287	0.013148382440891266	0.6161073165438457	-1.6801283787734156	1.4604913446228571	0.5793637659200608	-1.78824908716336	1.6943464138073525	0.5834526643032268	-1.8475467867334017	1.5441333723951423	0.6193919829274459	-1.6460649959442168	1.3646436242541364	0.38830650777714387	-1.5706842885389092	1.0708925060592267	0.3837600764918754	-1.6165103309458464	0.8258270219720176	0.3517726246527058	-1.6531380252065275	1.3579323004514716	0.7633187890081791	-1.6561979499074497	1.0663629131256243	0.8267887182657803	-1.7757821842618098	0.8590899473823587	0.8598261969720802
481	16.033333333333335	-1.6893444712961365	0.8202016181087795	0.5990329555423481	-1.7086697635026773	0.7926046986639884	0.49775884555662203	-1.8551118555165151	0.45749786404728476	0.46693671810622955	-1.8345677467109924	0.10751849944393613	0.4618815247372461	-1.9996288596387637	-0.012443735117095267	0.4848404407253776	-1.9796963474784433	-0.017510130293809184	0.4536656186882381	-1.7950663905695197	0.03453122109584606	0.4797688146326661	-1.6656074891645902	0.7872434804024495	0.6871652063368553	-1.6566374433018876	0.43178814412428534	0.6310260826974028	-1.5454811661409598	0.07699401637896922	0.616722372773119	-1.7560747496977815	-0.010842286647948653	0.6516842952898606	-1.6992130622122934	-0.023664690789116562	0.6818689949401786	-1.4988760775478414	0.014735338094568064	0.6104227229792787	-1.7149612151016576	1.4561742467620395	0.5808234088116906	-1.826545220527227	1.6914598434442696	0.5833533506226873	-1.8801338013513547	1.5361288729831075	0.6105123048188427	-1.6773791913897613	1.361645966740757	0.3923650092931051	-1.5931451806440498	1.067947546919031	0.38747930104737427	-1.6303495984446819	0.8221001713396581	0.35200665659047226	-1.690673250390681	1.3539993897401363	0.7629368757928894	-1.7062420621936814	1.0681005323035346	0.8303771171219503	-1.8349840964070883	0.8637365600559374	0.863664496570956
482	16.066666666666666	-1.7204027258060117	0.8158045829238497	0.60102696305462	-1.7421366910881713	0.7865825160230746	0.4989369799166316	-1.8886603463455438	0.44633433335282663	0.48217539984960545	-1.9342852715183256	0.09283882161466754	0.4688715516466295	-2.104662770363489	-0.011518395309573604	0.4990200724768944	-2.086077957604042	-0.02312161789184212	0.47229853475846656	-1.904275205496865	0.017328627348658292	0.48621390245751533	-1.6947488176272367	0.7816314731412942	0.6884239674286515	-1.6747993709420494	0.42905638724942263	0.6307341631987564	-1.5430005954291455	0.08019842257422369	0.6173859579165372	-1.7519628140904575	-0.009704994461305056	0.655372734631436	-1.6910393382752316	-0.022825664004616927	0.6873866996515828	-1.4927521615054056	0.017499560120921836	0.6050137409722575	-1.7503576614847642	1.4503124268598369	0.5814238296207863	-1.8667961313619028	1.6881202326009912	0.5824371575291152	-1.9112328537907537	1.52443780131104	0.5947635861915499	-1.7087604102487426	1.3568936624144148	0.39646096225491023	-1.618706789887229	1.0644163301732001	0.38941238485915997	-1.6488777179907554	0.8173797029457038	0.35180366976522004	-1.728608845502062	1.3485226271329382	0.761410783122936	-1.7533644857446262	1.0668715991866407	0.8335064008287405	-1.8914823766291482	0.865418907089838	0.8655410062967752
483	16.1	-1.7527207469338748	0.8103653348427453	0.6030363843474725	-1.776370845541927	0.7802096503141626	0.5005605969946565	-1.9229762133264203	0.43537041451773517	0.49633636650483576	-2.0243891975559785	0.0862122537038269	0.47667328169885725	-2.1958592444349474	-0.0006701964674509853	0.5089749184195077	-2.1777992076988655	-0.016101223038342063	0.48255285909545526	-2.0032564546648035	0.009997269347261643	0.49182702541733364	-1.725915093453767	0.775793013422906	0.6898029907484508	-1.6964773466959138	0.4261220422152501	0.6312975787378411	-1.5434814288994545	0.08348073778194566	0.617594514774621	-1.746162482249487	-0.008648714528184932	0.6591479696769804	-1.6834716193175907	-0.020996427970680756	0.6928903432714179	-1.4896363186198243	0.02149422388528331	0.6011739368607573	-1.7865293736407426	1.44315950206752	0.5808630453404398	-1.9077949597390687	1.6837781422704963	0.5808533712648404	-1.942018701154563	1.510709224316766	0.5748724413087452	-1.7409134061479272	1.3506654041107695	0.399846523416926	-1.6468790744847148	1.0600775339603339	0.39013285577194096	-1.6722015769994867	0.8115296974872909	0.35128096614753007	-1.7671013084733038	1.3420289001986692	0.7586613720205676	-1.7983486710310292	1.0628922658297828	0.83553282955779	-1.9453767036598433	0.8638751493385102	0.8654726040481217
484	16.133333333333333	-1.787126596207609	0.8040421920542256	0.6048919415776047	-1.8122437814761796	0.7739013894168666	0.502454915853823	-1.960232151136063	0.42610682027095326	0.5077064208469843	-2.101311289398558	0.08490355427715038	0.48520510979830966	-2.272996855366693	0.016802067232271414	0.5140366970318029	-2.254963621181746	0.00019619582714972168	0.484585556430969	-2.087921784204222	0.00852383776866714	0.4968350798287992	-1.7597263413041717	0.7701020068318164	0.6912287857009125	-1.7232748451290751	0.4230629324687433	0.6318688618208383	-1.5479106627307857	0.08752687903618826	0.6170130871115747	-1.7396949875474657	-0.0077070868964153275	0.6630990193469268	-1.6773599515810438	-0.018145838150574866	0.6974837157030109	-1.4905949475969626	0.027264250969653136	0.5991472296695363	-1.8235785698786955	1.4351047339555811	0.5789856847040309	-1.948252575862672	1.677896113567402	0.5784413043019802	-1.9740523844997901	1.4970880551186927	0.5552364785650181	-1.7743798502917736	1.3433330747735555	0.4019305533153381	-1.6777579059323642	1.0545673639124984	0.3901838486461655	-1.700300603007366	0.8046822722638229	0.3503252554608186	-1.8061668326634805	1.3350099206659438	0.7547757411622962	-1.842000650674805	1.0567227569426787	0.8358414643639743	-1.9967595225862527	0.8591806985471753	0.8635938436546441
485	16.166666666666668	-1.8243775341644928	0.7968876137027204	0.606379869955801	-1.8506866711243903	0.7675991261680137	0.5043330448939789	-2.000550217733782	0.4187078246588005	0.5158272098509643	-2.162577209070665	0.08496454487911786	0.49461752757258387	-2.3363029073556985	0.03431597661922037	0.5165394614623005	-2.318043759188546	0.018157698994838753	0.4826908273158838	-2.155248209220328	0.00840959405181177	0.5022164990235932	-1.7966843983555976	0.7644943802802766	0.6924843647409662	-1.756049451696727	0.4198891025321113	0.6318087460956431	-1.5571349185369985	0.0932054121819116	0.6153558233504093	-1.7333229411506867	-0.006939829639314806	0.667059254850207	-1.6727523386154717	-0.014314497123240672	0.7008759967960917	-1.4965034339246328	0.03585557360412362	0.5983904007967745	-1.861393678585266	1.426638644251939	0.5758235389336591	-1.9875055080956772	1.6706262075535423	0.5747405228344424	-2.0083737478675596	1.4851867177591431	0.5393764564795632	-1.809390536925975	1.335336156139903	0.4023711690442344	-1.7118971551199873	1.047378232181098	0.39022879522607384	-1.7329039448656276	0.7971240647728994	0.3488905879711736	-1.8456285282687892	1.3278854770014585	0.7498991487527634	-1.8844351782534368	1.0490874547273301	0.8341219944727113	-2.0451322202415185	0.8517826210307571	0.8603198265951513
